<mxfile host="Electron" modified="2023-10-02T15:29:02.286Z" agent="Mozilla/5.0 (Windows NT 10.0; Win64; x64) AppleWebKit/537.36 (KHTML, like Gecko) draw.io/21.7.5 Chrome/114.0.5735.289 Electron/25.8.1 Safari/537.36" etag="0G1loXu7fbu8viyFbbaH" version="21.7.5" type="device">
  <diagram name="PÃ¡gina-1" id="xteaIWhOfn_X7FKZJJGV">
    <mxGraphModel dx="1418" dy="820" grid="1" gridSize="10" guides="1" tooltips="1" connect="1" arrows="1" fold="1" page="1" pageScale="1" pageWidth="827" pageHeight="1169" math="0" shadow="0">
      <root>
        <mxCell id="0" />
        <mxCell id="1" parent="0" />
        <mxCell id="Ru5bf33LoUWyNoy33Ljt-7" style="edgeStyle=orthogonalEdgeStyle;rounded=0;orthogonalLoop=1;jettySize=auto;html=1;entryX=0.5;entryY=0;entryDx=0;entryDy=0;" parent="1" source="Ru5bf33LoUWyNoy33Ljt-1" target="Ru5bf33LoUWyNoy33Ljt-3" edge="1">
          <mxGeometry relative="1" as="geometry" />
        </mxCell>
        <mxCell id="Ru5bf33LoUWyNoy33Ljt-1" value="Inicio&amp;nbsp;" style="rounded=0;whiteSpace=wrap;html=1;" parent="1" vertex="1">
          <mxGeometry x="180" y="40" width="120" height="60" as="geometry" />
        </mxCell>
        <mxCell id="Ru5bf33LoUWyNoy33Ljt-8" style="edgeStyle=orthogonalEdgeStyle;rounded=0;orthogonalLoop=1;jettySize=auto;html=1;entryX=0.583;entryY=0.05;entryDx=0;entryDy=0;entryPerimeter=0;" parent="1" source="Ru5bf33LoUWyNoy33Ljt-3" target="Ru5bf33LoUWyNoy33Ljt-4" edge="1">
          <mxGeometry relative="1" as="geometry" />
        </mxCell>
        <mxCell id="Ru5bf33LoUWyNoy33Ljt-3" value="X=1" style="rounded=0;whiteSpace=wrap;html=1;" parent="1" vertex="1">
          <mxGeometry x="180" y="150" width="120" height="60" as="geometry" />
        </mxCell>
        <mxCell id="Ru5bf33LoUWyNoy33Ljt-9" style="edgeStyle=orthogonalEdgeStyle;rounded=0;orthogonalLoop=1;jettySize=auto;html=1;entryX=0.5;entryY=0;entryDx=0;entryDy=0;" parent="1" source="Ru5bf33LoUWyNoy33Ljt-4" target="Ru5bf33LoUWyNoy33Ljt-5" edge="1">
          <mxGeometry relative="1" as="geometry" />
        </mxCell>
        <mxCell id="Ru5bf33LoUWyNoy33Ljt-4" value="Leer x" style="shape=parallelogram;perimeter=parallelogramPerimeter;whiteSpace=wrap;html=1;fixedSize=1;" parent="1" vertex="1">
          <mxGeometry x="170" y="250" width="120" height="60" as="geometry" />
        </mxCell>
        <mxCell id="Ru5bf33LoUWyNoy33Ljt-10" style="edgeStyle=orthogonalEdgeStyle;rounded=0;orthogonalLoop=1;jettySize=auto;html=1;" parent="1" source="Ru5bf33LoUWyNoy33Ljt-5" target="Ru5bf33LoUWyNoy33Ljt-6" edge="1">
          <mxGeometry relative="1" as="geometry" />
        </mxCell>
        <mxCell id="Ru5bf33LoUWyNoy33Ljt-5" value="X= X+1" style="rounded=0;whiteSpace=wrap;html=1;" parent="1" vertex="1">
          <mxGeometry x="170" y="360" width="120" height="60" as="geometry" />
        </mxCell>
        <mxCell id="Ru5bf33LoUWyNoy33Ljt-13" style="edgeStyle=orthogonalEdgeStyle;rounded=0;orthogonalLoop=1;jettySize=auto;html=1;entryX=0.533;entryY=-0.1;entryDx=0;entryDy=0;entryPerimeter=0;" parent="1" source="Ru5bf33LoUWyNoy33Ljt-6" target="Ru5bf33LoUWyNoy33Ljt-12" edge="1">
          <mxGeometry relative="1" as="geometry" />
        </mxCell>
        <mxCell id="Ru5bf33LoUWyNoy33Ljt-6" value="X&amp;gt;20" style="rhombus;whiteSpace=wrap;html=1;" parent="1" vertex="1">
          <mxGeometry x="135" y="460" width="190" height="140" as="geometry" />
        </mxCell>
        <mxCell id="Ru5bf33LoUWyNoy33Ljt-11" value="" style="endArrow=classic;html=1;rounded=0;exitX=0;exitY=0.5;exitDx=0;exitDy=0;entryX=0;entryY=0.75;entryDx=0;entryDy=0;" parent="1" source="Ru5bf33LoUWyNoy33Ljt-6" target="Ru5bf33LoUWyNoy33Ljt-4" edge="1">
          <mxGeometry width="50" height="50" relative="1" as="geometry">
            <mxPoint x="80" y="510" as="sourcePoint" />
            <mxPoint x="80" y="210" as="targetPoint" />
            <Array as="points">
              <mxPoint x="50" y="380" />
            </Array>
          </mxGeometry>
        </mxCell>
        <mxCell id="Ru5bf33LoUWyNoy33Ljt-12" value="FIN" style="rounded=0;whiteSpace=wrap;html=1;" parent="1" vertex="1">
          <mxGeometry x="340" y="620" width="120" height="60" as="geometry" />
        </mxCell>
        <mxCell id="Ru5bf33LoUWyNoy33Ljt-14" value="1" style="text;html=1;strokeColor=none;fillColor=none;align=center;verticalAlign=middle;whiteSpace=wrap;rounded=0;" parent="1" vertex="1">
          <mxGeometry x="80" y="50" width="60" height="30" as="geometry" />
        </mxCell>
        <mxCell id="Ru5bf33LoUWyNoy33Ljt-33" style="edgeStyle=orthogonalEdgeStyle;rounded=0;orthogonalLoop=1;jettySize=auto;html=1;entryX=0.5;entryY=0;entryDx=0;entryDy=0;" parent="1" source="Ru5bf33LoUWyNoy33Ljt-34" target="Ru5bf33LoUWyNoy33Ljt-36" edge="1">
          <mxGeometry relative="1" as="geometry" />
        </mxCell>
        <mxCell id="Ru5bf33LoUWyNoy33Ljt-34" value="Inicio&amp;nbsp;" style="rounded=0;whiteSpace=wrap;html=1;" parent="1" vertex="1">
          <mxGeometry x="620" y="30" width="120" height="60" as="geometry" />
        </mxCell>
        <mxCell id="Ru5bf33LoUWyNoy33Ljt-35" style="edgeStyle=orthogonalEdgeStyle;rounded=0;orthogonalLoop=1;jettySize=auto;html=1;entryX=0.583;entryY=0.05;entryDx=0;entryDy=0;entryPerimeter=0;" parent="1" source="Ru5bf33LoUWyNoy33Ljt-36" target="Ru5bf33LoUWyNoy33Ljt-38" edge="1">
          <mxGeometry relative="1" as="geometry" />
        </mxCell>
        <mxCell id="Ru5bf33LoUWyNoy33Ljt-36" value="X=0" style="rounded=0;whiteSpace=wrap;html=1;" parent="1" vertex="1">
          <mxGeometry x="620" y="140" width="120" height="60" as="geometry" />
        </mxCell>
        <mxCell id="Ru5bf33LoUWyNoy33Ljt-37" style="edgeStyle=orthogonalEdgeStyle;rounded=0;orthogonalLoop=1;jettySize=auto;html=1;entryX=0.5;entryY=0;entryDx=0;entryDy=0;" parent="1" source="Ru5bf33LoUWyNoy33Ljt-38" target="Ru5bf33LoUWyNoy33Ljt-40" edge="1">
          <mxGeometry relative="1" as="geometry" />
        </mxCell>
        <mxCell id="Ru5bf33LoUWyNoy33Ljt-38" value="Leer x" style="shape=parallelogram;perimeter=parallelogramPerimeter;whiteSpace=wrap;html=1;fixedSize=1;" parent="1" vertex="1">
          <mxGeometry x="610" y="240" width="120" height="60" as="geometry" />
        </mxCell>
        <mxCell id="Ru5bf33LoUWyNoy33Ljt-39" style="edgeStyle=orthogonalEdgeStyle;rounded=0;orthogonalLoop=1;jettySize=auto;html=1;" parent="1" source="Ru5bf33LoUWyNoy33Ljt-40" target="Ru5bf33LoUWyNoy33Ljt-42" edge="1">
          <mxGeometry relative="1" as="geometry" />
        </mxCell>
        <mxCell id="Ru5bf33LoUWyNoy33Ljt-40" value="&lt;br&gt;X= X+2" style="rounded=0;whiteSpace=wrap;html=1;" parent="1" vertex="1">
          <mxGeometry x="610" y="350" width="120" height="60" as="geometry" />
        </mxCell>
        <mxCell id="Ru5bf33LoUWyNoy33Ljt-41" style="edgeStyle=orthogonalEdgeStyle;rounded=0;orthogonalLoop=1;jettySize=auto;html=1;entryX=0.533;entryY=-0.1;entryDx=0;entryDy=0;entryPerimeter=0;" parent="1" source="Ru5bf33LoUWyNoy33Ljt-42" target="Ru5bf33LoUWyNoy33Ljt-44" edge="1">
          <mxGeometry relative="1" as="geometry" />
        </mxCell>
        <mxCell id="Ru5bf33LoUWyNoy33Ljt-42" value="X=&amp;gt;200" style="rhombus;whiteSpace=wrap;html=1;" parent="1" vertex="1">
          <mxGeometry x="575" y="450" width="190" height="140" as="geometry" />
        </mxCell>
        <mxCell id="Ru5bf33LoUWyNoy33Ljt-43" value="" style="endArrow=classic;html=1;rounded=0;exitX=0;exitY=0.5;exitDx=0;exitDy=0;entryX=0;entryY=0.75;entryDx=0;entryDy=0;" parent="1" source="Ru5bf33LoUWyNoy33Ljt-42" target="Ru5bf33LoUWyNoy33Ljt-38" edge="1">
          <mxGeometry width="50" height="50" relative="1" as="geometry">
            <mxPoint x="520" y="500" as="sourcePoint" />
            <mxPoint x="520" y="200" as="targetPoint" />
            <Array as="points">
              <mxPoint x="490" y="370" />
            </Array>
          </mxGeometry>
        </mxCell>
        <mxCell id="Ru5bf33LoUWyNoy33Ljt-44" value="FIN" style="rounded=0;whiteSpace=wrap;html=1;" parent="1" vertex="1">
          <mxGeometry x="780" y="610" width="120" height="60" as="geometry" />
        </mxCell>
        <mxCell id="Ru5bf33LoUWyNoy33Ljt-45" value="2" style="text;html=1;strokeColor=none;fillColor=none;align=center;verticalAlign=middle;whiteSpace=wrap;rounded=0;" parent="1" vertex="1">
          <mxGeometry x="520" y="40" width="60" height="30" as="geometry" />
        </mxCell>
        <mxCell id="Ru5bf33LoUWyNoy33Ljt-46" style="edgeStyle=orthogonalEdgeStyle;rounded=0;orthogonalLoop=1;jettySize=auto;html=1;entryX=0.5;entryY=0;entryDx=0;entryDy=0;" parent="1" source="Ru5bf33LoUWyNoy33Ljt-47" target="Ru5bf33LoUWyNoy33Ljt-49" edge="1">
          <mxGeometry relative="1" as="geometry" />
        </mxCell>
        <mxCell id="Ru5bf33LoUWyNoy33Ljt-47" value="Inicio&amp;nbsp;" style="rounded=0;whiteSpace=wrap;html=1;" parent="1" vertex="1">
          <mxGeometry x="1237" y="60" width="120" height="60" as="geometry" />
        </mxCell>
        <mxCell id="Ru5bf33LoUWyNoy33Ljt-48" style="edgeStyle=orthogonalEdgeStyle;rounded=0;orthogonalLoop=1;jettySize=auto;html=1;" parent="1" source="Ru5bf33LoUWyNoy33Ljt-49" edge="1">
          <mxGeometry relative="1" as="geometry">
            <mxPoint x="1290" y="460" as="targetPoint" />
          </mxGeometry>
        </mxCell>
        <mxCell id="Ru5bf33LoUWyNoy33Ljt-49" value="X=0" style="rounded=0;whiteSpace=wrap;html=1;" parent="1" vertex="1">
          <mxGeometry x="1237" y="170" width="120" height="60" as="geometry" />
        </mxCell>
        <mxCell id="Ru5bf33LoUWyNoy33Ljt-58" value="3" style="text;html=1;strokeColor=none;fillColor=none;align=center;verticalAlign=middle;whiteSpace=wrap;rounded=0;" parent="1" vertex="1">
          <mxGeometry x="1137" y="70" width="60" height="30" as="geometry" />
        </mxCell>
        <mxCell id="Ru5bf33LoUWyNoy33Ljt-60" value="x= X +1&amp;nbsp;" style="rounded=0;whiteSpace=wrap;html=1;" parent="1" vertex="1">
          <mxGeometry x="1237" y="340" width="120" height="60" as="geometry" />
        </mxCell>
        <mxCell id="Ru5bf33LoUWyNoy33Ljt-62" style="edgeStyle=orthogonalEdgeStyle;rounded=0;orthogonalLoop=1;jettySize=auto;html=1;entryX=0.5;entryY=0;entryDx=0;entryDy=0;" parent="1" target="Ru5bf33LoUWyNoy33Ljt-60" edge="1">
          <mxGeometry relative="1" as="geometry">
            <mxPoint x="1297" y="340" as="sourcePoint" />
          </mxGeometry>
        </mxCell>
        <mxCell id="Ru5bf33LoUWyNoy33Ljt-68" style="edgeStyle=orthogonalEdgeStyle;rounded=0;orthogonalLoop=1;jettySize=auto;html=1;" parent="1" source="Ru5bf33LoUWyNoy33Ljt-64" target="Ru5bf33LoUWyNoy33Ljt-67" edge="1">
          <mxGeometry relative="1" as="geometry" />
        </mxCell>
        <mxCell id="Ru5bf33LoUWyNoy33Ljt-69" style="edgeStyle=orthogonalEdgeStyle;rounded=0;orthogonalLoop=1;jettySize=auto;html=1;exitX=1;exitY=0.5;exitDx=0;exitDy=0;" parent="1" source="Ru5bf33LoUWyNoy33Ljt-64" target="Ru5bf33LoUWyNoy33Ljt-66" edge="1">
          <mxGeometry relative="1" as="geometry" />
        </mxCell>
        <mxCell id="Ru5bf33LoUWyNoy33Ljt-64" value="X % 2 == 0" style="rhombus;whiteSpace=wrap;html=1;" parent="1" vertex="1">
          <mxGeometry x="1218.5" y="450" width="140" height="135" as="geometry" />
        </mxCell>
        <mxCell id="Ru5bf33LoUWyNoy33Ljt-71" style="edgeStyle=orthogonalEdgeStyle;rounded=0;orthogonalLoop=1;jettySize=auto;html=1;entryX=0.847;entryY=0.345;entryDx=0;entryDy=0;entryPerimeter=0;" parent="1" source="Ru5bf33LoUWyNoy33Ljt-66" target="Ru5bf33LoUWyNoy33Ljt-67" edge="1">
          <mxGeometry relative="1" as="geometry" />
        </mxCell>
        <mxCell id="Ru5bf33LoUWyNoy33Ljt-66" value="Escribir x" style="shape=parallelogram;perimeter=parallelogramPerimeter;whiteSpace=wrap;html=1;fixedSize=1;" parent="1" vertex="1">
          <mxGeometry x="1367" y="650" width="120" height="60" as="geometry" />
        </mxCell>
        <mxCell id="Ru5bf33LoUWyNoy33Ljt-72" style="edgeStyle=orthogonalEdgeStyle;rounded=0;orthogonalLoop=1;jettySize=auto;html=1;exitX=0;exitY=0.5;exitDx=0;exitDy=0;" parent="1" source="Ru5bf33LoUWyNoy33Ljt-67" edge="1">
          <mxGeometry relative="1" as="geometry">
            <mxPoint x="1300" y="320" as="targetPoint" />
            <mxPoint x="1200" y="805" as="sourcePoint" />
            <Array as="points">
              <mxPoint x="1091" y="805" />
              <mxPoint x="1091" y="320" />
            </Array>
          </mxGeometry>
        </mxCell>
        <mxCell id="Ru5bf33LoUWyNoy33Ljt-77" style="edgeStyle=orthogonalEdgeStyle;rounded=0;orthogonalLoop=1;jettySize=auto;html=1;entryX=0.5;entryY=0;entryDx=0;entryDy=0;" parent="1" source="Ru5bf33LoUWyNoy33Ljt-67" target="Ru5bf33LoUWyNoy33Ljt-76" edge="1">
          <mxGeometry relative="1" as="geometry" />
        </mxCell>
        <mxCell id="Ru5bf33LoUWyNoy33Ljt-67" value="X=&amp;gt;200" style="rhombus;whiteSpace=wrap;html=1;" parent="1" vertex="1">
          <mxGeometry x="1220" y="750" width="137" height="110" as="geometry" />
        </mxCell>
        <mxCell id="Ru5bf33LoUWyNoy33Ljt-73" value="SI" style="text;html=1;strokeColor=none;fillColor=none;align=center;verticalAlign=middle;whiteSpace=wrap;rounded=0;" parent="1" vertex="1">
          <mxGeometry x="1410" y="480" width="60" height="30" as="geometry" />
        </mxCell>
        <mxCell id="Ru5bf33LoUWyNoy33Ljt-74" value="NO" style="text;html=1;strokeColor=none;fillColor=none;align=center;verticalAlign=middle;whiteSpace=wrap;rounded=0;" parent="1" vertex="1">
          <mxGeometry x="1220" y="635" width="60" height="30" as="geometry" />
        </mxCell>
        <mxCell id="Ru5bf33LoUWyNoy33Ljt-75" value="NO" style="text;html=1;strokeColor=none;fillColor=none;align=center;verticalAlign=middle;whiteSpace=wrap;rounded=0;" parent="1" vertex="1">
          <mxGeometry x="1137" y="760" width="60" height="30" as="geometry" />
        </mxCell>
        <mxCell id="Ru5bf33LoUWyNoy33Ljt-76" value="FIN" style="rounded=1;whiteSpace=wrap;html=1;" parent="1" vertex="1">
          <mxGeometry x="1228.5" y="940" width="120" height="60" as="geometry" />
        </mxCell>
        <mxCell id="Ru5bf33LoUWyNoy33Ljt-78" value="Inicio" style="rounded=0;whiteSpace=wrap;html=1;" parent="1" vertex="1">
          <mxGeometry x="1720" y="55" width="120" height="60" as="geometry" />
        </mxCell>
        <mxCell id="Ru5bf33LoUWyNoy33Ljt-79" value="4" style="text;html=1;strokeColor=none;fillColor=none;align=center;verticalAlign=middle;whiteSpace=wrap;rounded=0;" parent="1" vertex="1">
          <mxGeometry x="1660" y="30" width="60" height="30" as="geometry" />
        </mxCell>
        <mxCell id="Ru5bf33LoUWyNoy33Ljt-80" value="Leer N" style="shape=parallelogram;perimeter=parallelogramPerimeter;whiteSpace=wrap;html=1;fixedSize=1;" parent="1" vertex="1">
          <mxGeometry x="1710" y="160" width="120" height="60" as="geometry" />
        </mxCell>
        <mxCell id="Ru5bf33LoUWyNoy33Ljt-81" value="" style="endArrow=classic;html=1;rounded=0;entryX=0.558;entryY=0.033;entryDx=0;entryDy=0;entryPerimeter=0;" parent="1" source="Ru5bf33LoUWyNoy33Ljt-78" target="Ru5bf33LoUWyNoy33Ljt-80" edge="1">
          <mxGeometry width="50" height="50" relative="1" as="geometry">
            <mxPoint x="1570" y="170" as="sourcePoint" />
            <mxPoint x="1620" y="120" as="targetPoint" />
          </mxGeometry>
        </mxCell>
        <mxCell id="Ru5bf33LoUWyNoy33Ljt-90" style="edgeStyle=orthogonalEdgeStyle;rounded=0;orthogonalLoop=1;jettySize=auto;html=1;exitX=0.5;exitY=1;exitDx=0;exitDy=0;entryX=0.5;entryY=0;entryDx=0;entryDy=0;" parent="1" source="Ru5bf33LoUWyNoy33Ljt-82" target="Ru5bf33LoUWyNoy33Ljt-84" edge="1">
          <mxGeometry relative="1" as="geometry" />
        </mxCell>
        <mxCell id="Ru5bf33LoUWyNoy33Ljt-82" value="X = 1" style="rounded=0;whiteSpace=wrap;html=1;" parent="1" vertex="1">
          <mxGeometry x="1710" y="260" width="120" height="60" as="geometry" />
        </mxCell>
        <mxCell id="Ru5bf33LoUWyNoy33Ljt-83" value="" style="endArrow=classic;html=1;rounded=0;entryX=0.5;entryY=0;entryDx=0;entryDy=0;" parent="1" source="Ru5bf33LoUWyNoy33Ljt-80" target="Ru5bf33LoUWyNoy33Ljt-82" edge="1">
          <mxGeometry width="50" height="50" relative="1" as="geometry">
            <mxPoint x="1620" y="260" as="sourcePoint" />
            <mxPoint x="1670" y="210" as="targetPoint" />
          </mxGeometry>
        </mxCell>
        <mxCell id="Ru5bf33LoUWyNoy33Ljt-87" style="edgeStyle=orthogonalEdgeStyle;rounded=0;orthogonalLoop=1;jettySize=auto;html=1;entryX=0.5;entryY=0;entryDx=0;entryDy=0;" parent="1" source="Ru5bf33LoUWyNoy33Ljt-84" target="Ru5bf33LoUWyNoy33Ljt-85" edge="1">
          <mxGeometry relative="1" as="geometry" />
        </mxCell>
        <mxCell id="Ru5bf33LoUWyNoy33Ljt-92" style="edgeStyle=orthogonalEdgeStyle;rounded=0;orthogonalLoop=1;jettySize=auto;html=1;exitX=1;exitY=0.5;exitDx=0;exitDy=0;entryX=1;entryY=0.5;entryDx=0;entryDy=0;" parent="1" source="Ru5bf33LoUWyNoy33Ljt-84" target="Ru5bf33LoUWyNoy33Ljt-91" edge="1">
          <mxGeometry relative="1" as="geometry">
            <mxPoint x="1960" y="920" as="targetPoint" />
            <Array as="points">
              <mxPoint x="1961" y="420" />
              <mxPoint x="1961" y="840" />
            </Array>
          </mxGeometry>
        </mxCell>
        <mxCell id="Ru5bf33LoUWyNoy33Ljt-84" value="X == N" style="rhombus;whiteSpace=wrap;html=1;" parent="1" vertex="1">
          <mxGeometry x="1715" y="360" width="110" height="120" as="geometry" />
        </mxCell>
        <mxCell id="Ru5bf33LoUWyNoy33Ljt-88" style="edgeStyle=orthogonalEdgeStyle;rounded=0;orthogonalLoop=1;jettySize=auto;html=1;" parent="1" source="Ru5bf33LoUWyNoy33Ljt-85" target="Ru5bf33LoUWyNoy33Ljt-86" edge="1">
          <mxGeometry relative="1" as="geometry" />
        </mxCell>
        <mxCell id="Ru5bf33LoUWyNoy33Ljt-85" value="Escribir X" style="shape=parallelogram;perimeter=parallelogramPerimeter;whiteSpace=wrap;html=1;fixedSize=1;" parent="1" vertex="1">
          <mxGeometry x="1710" y="530" width="120" height="60" as="geometry" />
        </mxCell>
        <mxCell id="Ru5bf33LoUWyNoy33Ljt-89" style="edgeStyle=orthogonalEdgeStyle;rounded=0;orthogonalLoop=1;jettySize=auto;html=1;entryX=0;entryY=0.5;entryDx=0;entryDy=0;" parent="1" source="Ru5bf33LoUWyNoy33Ljt-86" target="Ru5bf33LoUWyNoy33Ljt-84" edge="1">
          <mxGeometry relative="1" as="geometry">
            <mxPoint x="1600" y="380" as="targetPoint" />
            <Array as="points">
              <mxPoint x="1601" y="720" />
              <mxPoint x="1601" y="420" />
            </Array>
          </mxGeometry>
        </mxCell>
        <mxCell id="Ru5bf33LoUWyNoy33Ljt-86" value="X = X + 1" style="rounded=0;whiteSpace=wrap;html=1;" parent="1" vertex="1">
          <mxGeometry x="1710" y="690" width="120" height="60" as="geometry" />
        </mxCell>
        <mxCell id="Ru5bf33LoUWyNoy33Ljt-91" value="FIN" style="rounded=1;whiteSpace=wrap;html=1;" parent="1" vertex="1">
          <mxGeometry x="1720" y="810" width="120" height="60" as="geometry" />
        </mxCell>
        <mxCell id="Ru5bf33LoUWyNoy33Ljt-93" value="SI" style="text;html=1;strokeColor=none;fillColor=none;align=center;verticalAlign=middle;whiteSpace=wrap;rounded=0;" parent="1" vertex="1">
          <mxGeometry x="1840" y="375" width="60" height="30" as="geometry" />
        </mxCell>
        <mxCell id="Ru5bf33LoUWyNoy33Ljt-94" value="Text" style="text;html=1;strokeColor=none;fillColor=none;align=center;verticalAlign=middle;whiteSpace=wrap;rounded=0;" parent="1" vertex="1">
          <mxGeometry x="1810" y="480" width="60" height="30" as="geometry" />
        </mxCell>
        <mxCell id="EF4QVHKyaYoDfBXSOHNN-1" value="INICIO" style="rounded=0;whiteSpace=wrap;html=1;" parent="1" vertex="1">
          <mxGeometry x="2350" y="90" width="120" height="60" as="geometry" />
        </mxCell>
        <mxCell id="EF4QVHKyaYoDfBXSOHNN-8" style="edgeStyle=orthogonalEdgeStyle;rounded=0;orthogonalLoop=1;jettySize=auto;html=1;exitX=0.5;exitY=1;exitDx=0;exitDy=0;entryX=0.5;entryY=0;entryDx=0;entryDy=0;" parent="1" source="EF4QVHKyaYoDfBXSOHNN-3" target="EF4QVHKyaYoDfBXSOHNN-5" edge="1">
          <mxGeometry relative="1" as="geometry" />
        </mxCell>
        <mxCell id="EF4QVHKyaYoDfBXSOHNN-3" value="LEER N" style="shape=parallelogram;perimeter=parallelogramPerimeter;whiteSpace=wrap;html=1;fixedSize=1;" parent="1" vertex="1">
          <mxGeometry x="2340" y="210" width="120" height="60" as="geometry" />
        </mxCell>
        <mxCell id="EF4QVHKyaYoDfBXSOHNN-4" value="" style="endArrow=classic;html=1;rounded=0;entryX=0.6;entryY=0.033;entryDx=0;entryDy=0;entryPerimeter=0;exitX=0.5;exitY=1;exitDx=0;exitDy=0;" parent="1" source="EF4QVHKyaYoDfBXSOHNN-1" target="EF4QVHKyaYoDfBXSOHNN-3" edge="1">
          <mxGeometry width="50" height="50" relative="1" as="geometry">
            <mxPoint x="2160" y="200" as="sourcePoint" />
            <mxPoint x="2210" y="150" as="targetPoint" />
          </mxGeometry>
        </mxCell>
        <mxCell id="EF4QVHKyaYoDfBXSOHNN-5" value="Inicio Contador = 1&lt;br&gt;M=N&lt;br&gt;Factorial =1" style="rounded=0;whiteSpace=wrap;html=1;" parent="1" vertex="1">
          <mxGeometry x="2340" y="320" width="120" height="60" as="geometry" />
        </mxCell>
        <mxCell id="EF4QVHKyaYoDfBXSOHNN-12" style="edgeStyle=orthogonalEdgeStyle;rounded=0;orthogonalLoop=1;jettySize=auto;html=1;entryX=0.5;entryY=0;entryDx=0;entryDy=0;" parent="1" source="EF4QVHKyaYoDfBXSOHNN-6" target="EF4QVHKyaYoDfBXSOHNN-11" edge="1">
          <mxGeometry relative="1" as="geometry" />
        </mxCell>
        <mxCell id="EF4QVHKyaYoDfBXSOHNN-6" value="Contador == N" style="rhombus;whiteSpace=wrap;html=1;" parent="1" vertex="1">
          <mxGeometry x="2300" y="440" width="200" height="90" as="geometry" />
        </mxCell>
        <mxCell id="EF4QVHKyaYoDfBXSOHNN-9" value="" style="endArrow=classic;html=1;rounded=0;entryX=0.5;entryY=0;entryDx=0;entryDy=0;exitX=0.5;exitY=1;exitDx=0;exitDy=0;" parent="1" source="EF4QVHKyaYoDfBXSOHNN-5" target="EF4QVHKyaYoDfBXSOHNN-6" edge="1">
          <mxGeometry width="50" height="50" relative="1" as="geometry">
            <mxPoint x="2290" y="460" as="sourcePoint" />
            <mxPoint x="2340" y="410" as="targetPoint" />
          </mxGeometry>
        </mxCell>
        <mxCell id="EF4QVHKyaYoDfBXSOHNN-16" style="edgeStyle=orthogonalEdgeStyle;rounded=0;orthogonalLoop=1;jettySize=auto;html=1;" parent="1" source="EF4QVHKyaYoDfBXSOHNN-11" target="EF4QVHKyaYoDfBXSOHNN-14" edge="1">
          <mxGeometry relative="1" as="geometry" />
        </mxCell>
        <mxCell id="EF4QVHKyaYoDfBXSOHNN-11" value="Factorial =&amp;nbsp; factorial * M" style="rounded=0;whiteSpace=wrap;html=1;" parent="1" vertex="1">
          <mxGeometry x="2311" y="590" width="189" height="90" as="geometry" />
        </mxCell>
        <mxCell id="EF4QVHKyaYoDfBXSOHNN-13" style="edgeStyle=orthogonalEdgeStyle;rounded=0;orthogonalLoop=1;jettySize=auto;html=1;exitX=0.5;exitY=1;exitDx=0;exitDy=0;" parent="1" source="EF4QVHKyaYoDfBXSOHNN-11" target="EF4QVHKyaYoDfBXSOHNN-11" edge="1">
          <mxGeometry relative="1" as="geometry" />
        </mxCell>
        <mxCell id="EF4QVHKyaYoDfBXSOHNN-17" style="edgeStyle=orthogonalEdgeStyle;rounded=0;orthogonalLoop=1;jettySize=auto;html=1;exitX=0.5;exitY=1;exitDx=0;exitDy=0;" parent="1" source="EF4QVHKyaYoDfBXSOHNN-14" target="EF4QVHKyaYoDfBXSOHNN-15" edge="1">
          <mxGeometry relative="1" as="geometry" />
        </mxCell>
        <mxCell id="EF4QVHKyaYoDfBXSOHNN-14" value="M = m -1" style="rounded=0;whiteSpace=wrap;html=1;" parent="1" vertex="1">
          <mxGeometry x="2340" y="730" width="120" height="60" as="geometry" />
        </mxCell>
        <mxCell id="EF4QVHKyaYoDfBXSOHNN-18" style="edgeStyle=orthogonalEdgeStyle;rounded=0;orthogonalLoop=1;jettySize=auto;html=1;exitX=0.5;exitY=1;exitDx=0;exitDy=0;entryX=0;entryY=0.5;entryDx=0;entryDy=0;" parent="1" source="EF4QVHKyaYoDfBXSOHNN-15" target="EF4QVHKyaYoDfBXSOHNN-6" edge="1">
          <mxGeometry relative="1" as="geometry">
            <mxPoint x="2200" y="350" as="targetPoint" />
            <Array as="points">
              <mxPoint x="2400" y="910" />
              <mxPoint x="2201" y="910" />
              <mxPoint x="2201" y="485" />
            </Array>
          </mxGeometry>
        </mxCell>
        <mxCell id="EF4QVHKyaYoDfBXSOHNN-15" value="Incrementar Contador&amp;nbsp;" style="rounded=0;whiteSpace=wrap;html=1;" parent="1" vertex="1">
          <mxGeometry x="2340" y="830" width="120" height="60" as="geometry" />
        </mxCell>
        <mxCell id="EF4QVHKyaYoDfBXSOHNN-19" value="" style="endArrow=classic;html=1;rounded=0;exitX=1;exitY=0.5;exitDx=0;exitDy=0;entryX=0.5;entryY=0;entryDx=0;entryDy=0;" parent="1" source="EF4QVHKyaYoDfBXSOHNN-6" target="EF4QVHKyaYoDfBXSOHNN-20" edge="1">
          <mxGeometry width="50" height="50" relative="1" as="geometry">
            <mxPoint x="2530" y="490" as="sourcePoint" />
            <mxPoint x="3030" y="460" as="targetPoint" />
            <Array as="points">
              <mxPoint x="2740" y="485" />
            </Array>
          </mxGeometry>
        </mxCell>
        <mxCell id="EF4QVHKyaYoDfBXSOHNN-20" value="Fin" style="rounded=1;whiteSpace=wrap;html=1;" parent="1" vertex="1">
          <mxGeometry x="2680" y="930" width="120" height="60" as="geometry" />
        </mxCell>
        <mxCell id="EF4QVHKyaYoDfBXSOHNN-21" value="5" style="text;html=1;strokeColor=none;fillColor=none;align=center;verticalAlign=middle;whiteSpace=wrap;rounded=0;" parent="1" vertex="1">
          <mxGeometry x="2220" y="75" width="60" height="30" as="geometry" />
        </mxCell>
        <mxCell id="U4U1wXX1w7Utu1sBEBzs-10" style="edgeStyle=orthogonalEdgeStyle;rounded=0;orthogonalLoop=1;jettySize=auto;html=1;" parent="1" source="U4U1wXX1w7Utu1sBEBzs-1" target="U4U1wXX1w7Utu1sBEBzs-4" edge="1">
          <mxGeometry relative="1" as="geometry" />
        </mxCell>
        <mxCell id="U4U1wXX1w7Utu1sBEBzs-1" value="Inicio" style="rounded=0;whiteSpace=wrap;html=1;" parent="1" vertex="1">
          <mxGeometry x="3970" y="15" width="120" height="60" as="geometry" />
        </mxCell>
        <mxCell id="U4U1wXX1w7Utu1sBEBzs-13" style="edgeStyle=orthogonalEdgeStyle;rounded=0;orthogonalLoop=1;jettySize=auto;html=1;" parent="1" source="U4U1wXX1w7Utu1sBEBzs-2" target="U4U1wXX1w7Utu1sBEBzs-9" edge="1">
          <mxGeometry relative="1" as="geometry" />
        </mxCell>
        <mxCell id="U4U1wXX1w7Utu1sBEBzs-2" value="Numero al azar = N&lt;br&gt;Numero negativo =&amp;nbsp; M&lt;br&gt;Numero positivo = P" style="rounded=0;whiteSpace=wrap;html=1;" parent="1" vertex="1">
          <mxGeometry x="3952.5" y="465" width="165" height="60" as="geometry" />
        </mxCell>
        <mxCell id="U4U1wXX1w7Utu1sBEBzs-11" style="edgeStyle=orthogonalEdgeStyle;rounded=0;orthogonalLoop=1;jettySize=auto;html=1;exitX=0.5;exitY=1;exitDx=0;exitDy=0;entryX=0.473;entryY=0.055;entryDx=0;entryDy=0;entryPerimeter=0;" parent="1" source="U4U1wXX1w7Utu1sBEBzs-4" target="U4U1wXX1w7Utu1sBEBzs-6" edge="1">
          <mxGeometry relative="1" as="geometry" />
        </mxCell>
        <mxCell id="U4U1wXX1w7Utu1sBEBzs-4" value="Iniciar contador 0" style="rounded=0;whiteSpace=wrap;html=1;" parent="1" vertex="1">
          <mxGeometry x="3970" y="145" width="120" height="60" as="geometry" />
        </mxCell>
        <mxCell id="U4U1wXX1w7Utu1sBEBzs-12" style="edgeStyle=orthogonalEdgeStyle;rounded=0;orthogonalLoop=1;jettySize=auto;html=1;entryX=0.5;entryY=0;entryDx=0;entryDy=0;" parent="1" source="U4U1wXX1w7Utu1sBEBzs-6" target="U4U1wXX1w7Utu1sBEBzs-2" edge="1">
          <mxGeometry relative="1" as="geometry" />
        </mxCell>
        <mxCell id="U4U1wXX1w7Utu1sBEBzs-28" style="edgeStyle=orthogonalEdgeStyle;rounded=0;orthogonalLoop=1;jettySize=auto;html=1;" parent="1" source="U4U1wXX1w7Utu1sBEBzs-6" target="U4U1wXX1w7Utu1sBEBzs-27" edge="1">
          <mxGeometry relative="1" as="geometry" />
        </mxCell>
        <mxCell id="U4U1wXX1w7Utu1sBEBzs-6" value="CONTADOR &amp;gt;=100" style="rhombus;whiteSpace=wrap;html=1;" parent="1" vertex="1">
          <mxGeometry x="3960" y="265" width="150" height="145" as="geometry" />
        </mxCell>
        <mxCell id="U4U1wXX1w7Utu1sBEBzs-14" style="edgeStyle=orthogonalEdgeStyle;rounded=0;orthogonalLoop=1;jettySize=auto;html=1;" parent="1" source="U4U1wXX1w7Utu1sBEBzs-9" edge="1">
          <mxGeometry relative="1" as="geometry">
            <mxPoint x="3920" y="725" as="targetPoint" />
          </mxGeometry>
        </mxCell>
        <mxCell id="U4U1wXX1w7Utu1sBEBzs-19" style="edgeStyle=orthogonalEdgeStyle;rounded=0;orthogonalLoop=1;jettySize=auto;html=1;exitX=1;exitY=0.5;exitDx=0;exitDy=0;entryX=0.5;entryY=0;entryDx=0;entryDy=0;" parent="1" source="U4U1wXX1w7Utu1sBEBzs-9" target="U4U1wXX1w7Utu1sBEBzs-18" edge="1">
          <mxGeometry relative="1" as="geometry" />
        </mxCell>
        <mxCell id="U4U1wXX1w7Utu1sBEBzs-9" value="N=&amp;gt; 0" style="rhombus;whiteSpace=wrap;html=1;" parent="1" vertex="1">
          <mxGeometry x="3970" y="570" width="130" height="150" as="geometry" />
        </mxCell>
        <mxCell id="U4U1wXX1w7Utu1sBEBzs-21" style="edgeStyle=orthogonalEdgeStyle;rounded=0;orthogonalLoop=1;jettySize=auto;html=1;entryX=0;entryY=0.25;entryDx=0;entryDy=0;" parent="1" source="U4U1wXX1w7Utu1sBEBzs-16" target="U4U1wXX1w7Utu1sBEBzs-24" edge="1">
          <mxGeometry relative="1" as="geometry">
            <mxPoint x="3990" y="955" as="targetPoint" />
          </mxGeometry>
        </mxCell>
        <mxCell id="U4U1wXX1w7Utu1sBEBzs-16" value="M+1" style="rounded=0;whiteSpace=wrap;html=1;" parent="1" vertex="1">
          <mxGeometry x="3840" y="735" width="150" height="90" as="geometry" />
        </mxCell>
        <mxCell id="U4U1wXX1w7Utu1sBEBzs-17" value="NO" style="text;html=1;strokeColor=none;fillColor=none;align=center;verticalAlign=middle;whiteSpace=wrap;rounded=0;" parent="1" vertex="1">
          <mxGeometry x="3888" y="595" width="60" height="30" as="geometry" />
        </mxCell>
        <mxCell id="U4U1wXX1w7Utu1sBEBzs-22" style="edgeStyle=orthogonalEdgeStyle;rounded=0;orthogonalLoop=1;jettySize=auto;html=1;entryX=0.992;entryY=0.6;entryDx=0;entryDy=0;entryPerimeter=0;" parent="1" source="U4U1wXX1w7Utu1sBEBzs-18" edge="1">
          <mxGeometry relative="1" as="geometry">
            <mxPoint x="4109.04" y="953" as="targetPoint" />
          </mxGeometry>
        </mxCell>
        <mxCell id="U4U1wXX1w7Utu1sBEBzs-18" value="P + 1" style="rounded=0;whiteSpace=wrap;html=1;" parent="1" vertex="1">
          <mxGeometry x="4090" y="735" width="150" height="90" as="geometry" />
        </mxCell>
        <mxCell id="U4U1wXX1w7Utu1sBEBzs-23" style="edgeStyle=orthogonalEdgeStyle;rounded=0;orthogonalLoop=1;jettySize=auto;html=1;entryX=0;entryY=0.5;entryDx=0;entryDy=0;" parent="1" target="U4U1wXX1w7Utu1sBEBzs-6" edge="1">
          <mxGeometry relative="1" as="geometry">
            <mxPoint x="3670" y="1035" as="targetPoint" />
            <mxPoint x="4050" y="985" as="sourcePoint" />
            <Array as="points">
              <mxPoint x="4050" y="1040" />
              <mxPoint x="4051" y="1040" />
              <mxPoint x="4051" y="1045" />
              <mxPoint x="3800" y="1045" />
              <mxPoint x="3800" y="338" />
            </Array>
          </mxGeometry>
        </mxCell>
        <mxCell id="U4U1wXX1w7Utu1sBEBzs-24" value="Sumar a contador 1" style="rounded=0;whiteSpace=wrap;html=1;" parent="1" vertex="1">
          <mxGeometry x="3998" y="935" width="120" height="60" as="geometry" />
        </mxCell>
        <mxCell id="U4U1wXX1w7Utu1sBEBzs-30" style="edgeStyle=orthogonalEdgeStyle;rounded=0;orthogonalLoop=1;jettySize=auto;html=1;" parent="1" source="U4U1wXX1w7Utu1sBEBzs-27" target="U4U1wXX1w7Utu1sBEBzs-29" edge="1">
          <mxGeometry relative="1" as="geometry" />
        </mxCell>
        <mxCell id="U4U1wXX1w7Utu1sBEBzs-27" value="Escribir &quot;han habido&quot;+ P+&quot;positivos y&quot;+ M +&quot;negativos" style="shape=parallelogram;perimeter=parallelogramPerimeter;whiteSpace=wrap;html=1;fixedSize=1;" parent="1" vertex="1">
          <mxGeometry x="4333" y="555" width="327" height="90" as="geometry" />
        </mxCell>
        <mxCell id="U4U1wXX1w7Utu1sBEBzs-29" value="FIN" style="rounded=1;whiteSpace=wrap;html=1;" parent="1" vertex="1">
          <mxGeometry x="4430" y="825" width="120" height="60" as="geometry" />
        </mxCell>
        <mxCell id="U4U1wXX1w7Utu1sBEBzs-31" style="edgeStyle=orthogonalEdgeStyle;rounded=0;orthogonalLoop=1;jettySize=auto;html=1;" parent="1" source="U4U1wXX1w7Utu1sBEBzs-32" target="U4U1wXX1w7Utu1sBEBzs-36" edge="1">
          <mxGeometry relative="1" as="geometry" />
        </mxCell>
        <mxCell id="U4U1wXX1w7Utu1sBEBzs-32" value="Inicio" style="rounded=0;whiteSpace=wrap;html=1;" parent="1" vertex="1">
          <mxGeometry x="3065" y="20" width="120" height="60" as="geometry" />
        </mxCell>
        <mxCell id="U4U1wXX1w7Utu1sBEBzs-33" style="edgeStyle=orthogonalEdgeStyle;rounded=0;orthogonalLoop=1;jettySize=auto;html=1;" parent="1" source="U4U1wXX1w7Utu1sBEBzs-34" target="U4U1wXX1w7Utu1sBEBzs-42" edge="1">
          <mxGeometry relative="1" as="geometry" />
        </mxCell>
        <mxCell id="U4U1wXX1w7Utu1sBEBzs-34" value="Numero al azar = N&lt;br&gt;Numero negativo =&amp;nbsp; M&lt;br&gt;Numero positivo = P" style="rounded=0;whiteSpace=wrap;html=1;" parent="1" vertex="1">
          <mxGeometry x="3047.5" y="470" width="165" height="60" as="geometry" />
        </mxCell>
        <mxCell id="U4U1wXX1w7Utu1sBEBzs-35" style="edgeStyle=orthogonalEdgeStyle;rounded=0;orthogonalLoop=1;jettySize=auto;html=1;exitX=0.5;exitY=1;exitDx=0;exitDy=0;entryX=0.473;entryY=0.055;entryDx=0;entryDy=0;entryPerimeter=0;" parent="1" source="U4U1wXX1w7Utu1sBEBzs-36" target="U4U1wXX1w7Utu1sBEBzs-39" edge="1">
          <mxGeometry relative="1" as="geometry" />
        </mxCell>
        <mxCell id="U4U1wXX1w7Utu1sBEBzs-36" value="Iniciar contador 0" style="rounded=0;whiteSpace=wrap;html=1;" parent="1" vertex="1">
          <mxGeometry x="3065" y="150" width="120" height="60" as="geometry" />
        </mxCell>
        <mxCell id="U4U1wXX1w7Utu1sBEBzs-37" style="edgeStyle=orthogonalEdgeStyle;rounded=0;orthogonalLoop=1;jettySize=auto;html=1;entryX=0.5;entryY=0;entryDx=0;entryDy=0;" parent="1" source="U4U1wXX1w7Utu1sBEBzs-39" target="U4U1wXX1w7Utu1sBEBzs-34" edge="1">
          <mxGeometry relative="1" as="geometry" />
        </mxCell>
        <mxCell id="U4U1wXX1w7Utu1sBEBzs-38" style="edgeStyle=orthogonalEdgeStyle;rounded=0;orthogonalLoop=1;jettySize=auto;html=1;" parent="1" source="U4U1wXX1w7Utu1sBEBzs-39" edge="1">
          <mxGeometry relative="1" as="geometry">
            <mxPoint x="3591.5" y="560" as="targetPoint" />
          </mxGeometry>
        </mxCell>
        <mxCell id="U4U1wXX1w7Utu1sBEBzs-39" value="CONTADOR &amp;gt;=100" style="rhombus;whiteSpace=wrap;html=1;" parent="1" vertex="1">
          <mxGeometry x="3055" y="270" width="150" height="145" as="geometry" />
        </mxCell>
        <mxCell id="U4U1wXX1w7Utu1sBEBzs-40" style="edgeStyle=orthogonalEdgeStyle;rounded=0;orthogonalLoop=1;jettySize=auto;html=1;" parent="1" source="U4U1wXX1w7Utu1sBEBzs-42" edge="1">
          <mxGeometry relative="1" as="geometry">
            <mxPoint x="3015" y="730" as="targetPoint" />
          </mxGeometry>
        </mxCell>
        <mxCell id="U4U1wXX1w7Utu1sBEBzs-41" style="edgeStyle=orthogonalEdgeStyle;rounded=0;orthogonalLoop=1;jettySize=auto;html=1;exitX=1;exitY=0.5;exitDx=0;exitDy=0;entryX=0.5;entryY=0;entryDx=0;entryDy=0;" parent="1" source="U4U1wXX1w7Utu1sBEBzs-42" target="U4U1wXX1w7Utu1sBEBzs-47" edge="1">
          <mxGeometry relative="1" as="geometry" />
        </mxCell>
        <mxCell id="U4U1wXX1w7Utu1sBEBzs-42" value="N=&amp;gt; 0" style="rhombus;whiteSpace=wrap;html=1;" parent="1" vertex="1">
          <mxGeometry x="3065" y="575" width="130" height="150" as="geometry" />
        </mxCell>
        <mxCell id="U4U1wXX1w7Utu1sBEBzs-43" style="edgeStyle=orthogonalEdgeStyle;rounded=0;orthogonalLoop=1;jettySize=auto;html=1;entryX=0;entryY=0.25;entryDx=0;entryDy=0;" parent="1" source="U4U1wXX1w7Utu1sBEBzs-44" target="U4U1wXX1w7Utu1sBEBzs-49" edge="1">
          <mxGeometry relative="1" as="geometry">
            <mxPoint x="3085" y="960" as="targetPoint" />
          </mxGeometry>
        </mxCell>
        <mxCell id="U4U1wXX1w7Utu1sBEBzs-44" value="M+1" style="rounded=0;whiteSpace=wrap;html=1;" parent="1" vertex="1">
          <mxGeometry x="2935" y="740" width="150" height="90" as="geometry" />
        </mxCell>
        <mxCell id="U4U1wXX1w7Utu1sBEBzs-45" value="NO" style="text;html=1;strokeColor=none;fillColor=none;align=center;verticalAlign=middle;whiteSpace=wrap;rounded=0;" parent="1" vertex="1">
          <mxGeometry x="2983" y="600" width="60" height="30" as="geometry" />
        </mxCell>
        <mxCell id="U4U1wXX1w7Utu1sBEBzs-46" style="edgeStyle=orthogonalEdgeStyle;rounded=0;orthogonalLoop=1;jettySize=auto;html=1;entryX=0.992;entryY=0.6;entryDx=0;entryDy=0;entryPerimeter=0;" parent="1" source="U4U1wXX1w7Utu1sBEBzs-47" edge="1">
          <mxGeometry relative="1" as="geometry">
            <mxPoint x="3204.04" y="958" as="targetPoint" />
          </mxGeometry>
        </mxCell>
        <mxCell id="U4U1wXX1w7Utu1sBEBzs-47" value="P + 1" style="rounded=0;whiteSpace=wrap;html=1;" parent="1" vertex="1">
          <mxGeometry x="3185" y="740" width="150" height="90" as="geometry" />
        </mxCell>
        <mxCell id="U4U1wXX1w7Utu1sBEBzs-48" style="edgeStyle=orthogonalEdgeStyle;rounded=0;orthogonalLoop=1;jettySize=auto;html=1;entryX=0;entryY=0.5;entryDx=0;entryDy=0;" parent="1" target="U4U1wXX1w7Utu1sBEBzs-39" edge="1">
          <mxGeometry relative="1" as="geometry">
            <mxPoint x="2765" y="1040" as="targetPoint" />
            <mxPoint x="3145" y="990" as="sourcePoint" />
            <Array as="points">
              <mxPoint x="3145" y="1045" />
              <mxPoint x="3146" y="1045" />
              <mxPoint x="3146" y="1050" />
              <mxPoint x="2895" y="1050" />
              <mxPoint x="2895" y="343" />
            </Array>
          </mxGeometry>
        </mxCell>
        <mxCell id="U4U1wXX1w7Utu1sBEBzs-49" value="Sumar a contador 1" style="rounded=0;whiteSpace=wrap;html=1;" parent="1" vertex="1">
          <mxGeometry x="3093" y="940" width="120" height="60" as="geometry" />
        </mxCell>
        <mxCell id="U4U1wXX1w7Utu1sBEBzs-55" style="edgeStyle=orthogonalEdgeStyle;rounded=0;orthogonalLoop=1;jettySize=auto;html=1;entryX=0.5;entryY=0;entryDx=0;entryDy=0;" parent="1" source="U4U1wXX1w7Utu1sBEBzs-53" target="U4U1wXX1w7Utu1sBEBzs-54" edge="1">
          <mxGeometry relative="1" as="geometry" />
        </mxCell>
        <mxCell id="U4U1wXX1w7Utu1sBEBzs-57" style="edgeStyle=orthogonalEdgeStyle;rounded=0;orthogonalLoop=1;jettySize=auto;html=1;" parent="1" source="U4U1wXX1w7Utu1sBEBzs-53" target="U4U1wXX1w7Utu1sBEBzs-56" edge="1">
          <mxGeometry relative="1" as="geometry" />
        </mxCell>
        <mxCell id="U4U1wXX1w7Utu1sBEBzs-53" value="M &amp;gt; 0" style="rhombus;whiteSpace=wrap;html=1;" parent="1" vertex="1">
          <mxGeometry x="3520" y="552.5" width="150" height="175" as="geometry" />
        </mxCell>
        <mxCell id="U4U1wXX1w7Utu1sBEBzs-59" style="edgeStyle=orthogonalEdgeStyle;rounded=0;orthogonalLoop=1;jettySize=auto;html=1;" parent="1" source="U4U1wXX1w7Utu1sBEBzs-54" target="U4U1wXX1w7Utu1sBEBzs-58" edge="1">
          <mxGeometry relative="1" as="geometry" />
        </mxCell>
        <mxCell id="U4U1wXX1w7Utu1sBEBzs-54" value="Escribir &quot;Han habido numeros negativos" style="shape=parallelogram;perimeter=parallelogramPerimeter;whiteSpace=wrap;html=1;fixedSize=1;" parent="1" vertex="1">
          <mxGeometry x="3350" y="825" width="170" height="110" as="geometry" />
        </mxCell>
        <mxCell id="U4U1wXX1w7Utu1sBEBzs-60" style="edgeStyle=orthogonalEdgeStyle;rounded=0;orthogonalLoop=1;jettySize=auto;html=1;" parent="1" source="U4U1wXX1w7Utu1sBEBzs-56" target="U4U1wXX1w7Utu1sBEBzs-58" edge="1">
          <mxGeometry relative="1" as="geometry" />
        </mxCell>
        <mxCell id="U4U1wXX1w7Utu1sBEBzs-56" value="Esbribir &quot;No han habido numeros negativos&quot;" style="shape=parallelogram;perimeter=parallelogramPerimeter;whiteSpace=wrap;html=1;fixedSize=1;" parent="1" vertex="1">
          <mxGeometry x="3610" y="800" width="170" height="130" as="geometry" />
        </mxCell>
        <mxCell id="U4U1wXX1w7Utu1sBEBzs-58" value="Fin" style="rounded=1;whiteSpace=wrap;html=1;" parent="1" vertex="1">
          <mxGeometry x="3535" y="1040" width="120" height="60" as="geometry" />
        </mxCell>
        <mxCell id="udBxNY5ujgTE33J7sAW1-3" style="edgeStyle=orthogonalEdgeStyle;rounded=0;orthogonalLoop=1;jettySize=auto;html=1;entryX=0.5;entryY=0;entryDx=0;entryDy=0;" parent="1" source="udBxNY5ujgTE33J7sAW1-1" target="udBxNY5ujgTE33J7sAW1-2" edge="1">
          <mxGeometry relative="1" as="geometry" />
        </mxCell>
        <mxCell id="udBxNY5ujgTE33J7sAW1-1" value="Inicio" style="rounded=0;whiteSpace=wrap;html=1;" parent="1" vertex="1">
          <mxGeometry x="5090" y="10" width="120" height="60" as="geometry" />
        </mxCell>
        <mxCell id="udBxNY5ujgTE33J7sAW1-13" style="edgeStyle=orthogonalEdgeStyle;rounded=0;orthogonalLoop=1;jettySize=auto;html=1;exitX=0.5;exitY=1;exitDx=0;exitDy=0;" parent="1" source="udBxNY5ujgTE33J7sAW1-2" target="udBxNY5ujgTE33J7sAW1-4" edge="1">
          <mxGeometry relative="1" as="geometry" />
        </mxCell>
        <mxCell id="udBxNY5ujgTE33J7sAW1-2" value="Numero al azar = N&lt;br&gt;Numero positivo = P&lt;br&gt;Numero negativo = M&lt;br&gt;M= 0&lt;br&gt;P=0" style="rounded=0;whiteSpace=wrap;html=1;" parent="1" vertex="1">
          <mxGeometry x="5060" y="140" width="180" height="110" as="geometry" />
        </mxCell>
        <mxCell id="udBxNY5ujgTE33J7sAW1-6" style="edgeStyle=orthogonalEdgeStyle;rounded=0;orthogonalLoop=1;jettySize=auto;html=1;exitX=0.5;exitY=1;exitDx=0;exitDy=0;" parent="1" source="udBxNY5ujgTE33J7sAW1-4" target="udBxNY5ujgTE33J7sAW1-5" edge="1">
          <mxGeometry relative="1" as="geometry" />
        </mxCell>
        <mxCell id="udBxNY5ujgTE33J7sAW1-22" style="edgeStyle=orthogonalEdgeStyle;rounded=0;orthogonalLoop=1;jettySize=auto;html=1;" parent="1" source="udBxNY5ujgTE33J7sAW1-4" target="udBxNY5ujgTE33J7sAW1-21" edge="1">
          <mxGeometry relative="1" as="geometry" />
        </mxCell>
        <mxCell id="udBxNY5ujgTE33J7sAW1-4" value="N&amp;nbsp; == 0" style="rhombus;whiteSpace=wrap;html=1;" parent="1" vertex="1">
          <mxGeometry x="5090" y="315" width="140" height="150" as="geometry" />
        </mxCell>
        <mxCell id="udBxNY5ujgTE33J7sAW1-15" style="edgeStyle=orthogonalEdgeStyle;rounded=0;orthogonalLoop=1;jettySize=auto;html=1;" parent="1" source="udBxNY5ujgTE33J7sAW1-5" target="udBxNY5ujgTE33J7sAW1-11" edge="1">
          <mxGeometry relative="1" as="geometry" />
        </mxCell>
        <mxCell id="udBxNY5ujgTE33J7sAW1-16" style="edgeStyle=orthogonalEdgeStyle;rounded=0;orthogonalLoop=1;jettySize=auto;html=1;entryX=0.5;entryY=0;entryDx=0;entryDy=0;" parent="1" source="udBxNY5ujgTE33J7sAW1-5" target="udBxNY5ujgTE33J7sAW1-12" edge="1">
          <mxGeometry relative="1" as="geometry" />
        </mxCell>
        <mxCell id="udBxNY5ujgTE33J7sAW1-5" value="N &amp;gt;0" style="rhombus;whiteSpace=wrap;html=1;" parent="1" vertex="1">
          <mxGeometry x="5105" y="542.5" width="110" height="115" as="geometry" />
        </mxCell>
        <mxCell id="udBxNY5ujgTE33J7sAW1-7" value="No" style="text;html=1;strokeColor=none;fillColor=none;align=center;verticalAlign=middle;whiteSpace=wrap;rounded=0;" parent="1" vertex="1">
          <mxGeometry x="5090" y="485" width="60" height="30" as="geometry" />
        </mxCell>
        <mxCell id="udBxNY5ujgTE33J7sAW1-18" style="edgeStyle=orthogonalEdgeStyle;rounded=0;orthogonalLoop=1;jettySize=auto;html=1;entryX=0;entryY=0.5;entryDx=0;entryDy=0;" parent="1" source="udBxNY5ujgTE33J7sAW1-11" target="udBxNY5ujgTE33J7sAW1-17" edge="1">
          <mxGeometry relative="1" as="geometry" />
        </mxCell>
        <mxCell id="udBxNY5ujgTE33J7sAW1-11" value="M= M+1" style="rounded=0;whiteSpace=wrap;html=1;" parent="1" vertex="1">
          <mxGeometry x="5000" y="680" width="120" height="100" as="geometry" />
        </mxCell>
        <mxCell id="udBxNY5ujgTE33J7sAW1-19" style="edgeStyle=orthogonalEdgeStyle;rounded=0;orthogonalLoop=1;jettySize=auto;html=1;entryX=1;entryY=0.5;entryDx=0;entryDy=0;" parent="1" source="udBxNY5ujgTE33J7sAW1-12" target="udBxNY5ujgTE33J7sAW1-17" edge="1">
          <mxGeometry relative="1" as="geometry" />
        </mxCell>
        <mxCell id="udBxNY5ujgTE33J7sAW1-12" value="P= P+1" style="rounded=0;whiteSpace=wrap;html=1;" parent="1" vertex="1">
          <mxGeometry x="5200" y="680" width="120" height="100" as="geometry" />
        </mxCell>
        <mxCell id="udBxNY5ujgTE33J7sAW1-20" style="edgeStyle=orthogonalEdgeStyle;rounded=0;orthogonalLoop=1;jettySize=auto;html=1;entryX=0.5;entryY=0;entryDx=0;entryDy=0;" parent="1" source="udBxNY5ujgTE33J7sAW1-17" target="udBxNY5ujgTE33J7sAW1-4" edge="1">
          <mxGeometry relative="1" as="geometry">
            <mxPoint x="4880" y="270" as="targetPoint" />
            <Array as="points">
              <mxPoint x="4880" y="890" />
              <mxPoint x="4880" y="315" />
            </Array>
          </mxGeometry>
        </mxCell>
        <mxCell id="udBxNY5ujgTE33J7sAW1-17" value="" style="ellipse;whiteSpace=wrap;html=1;" parent="1" vertex="1">
          <mxGeometry x="5105" y="850" width="120" height="80" as="geometry" />
        </mxCell>
        <mxCell id="udBxNY5ujgTE33J7sAW1-24" style="edgeStyle=orthogonalEdgeStyle;rounded=0;orthogonalLoop=1;jettySize=auto;html=1;" parent="1" source="udBxNY5ujgTE33J7sAW1-21" target="udBxNY5ujgTE33J7sAW1-23" edge="1">
          <mxGeometry relative="1" as="geometry" />
        </mxCell>
        <mxCell id="udBxNY5ujgTE33J7sAW1-21" value="Escribir M&lt;br&gt;Escribir P" style="shape=parallelogram;perimeter=parallelogramPerimeter;whiteSpace=wrap;html=1;fixedSize=1;" parent="1" vertex="1">
          <mxGeometry x="5400" y="525" width="120" height="60" as="geometry" />
        </mxCell>
        <mxCell id="udBxNY5ujgTE33J7sAW1-23" value="Fin" style="rounded=0;whiteSpace=wrap;html=1;" parent="1" vertex="1">
          <mxGeometry x="5400" y="710" width="120" height="60" as="geometry" />
        </mxCell>
        <mxCell id="udBxNY5ujgTE33J7sAW1-25" value="si" style="text;html=1;strokeColor=none;fillColor=none;align=center;verticalAlign=middle;whiteSpace=wrap;rounded=0;" parent="1" vertex="1">
          <mxGeometry x="5290" y="350" width="60" height="30" as="geometry" />
        </mxCell>
        <mxCell id="J0PfLM__iftuOIUvQU-6-8" style="edgeStyle=orthogonalEdgeStyle;rounded=0;orthogonalLoop=1;jettySize=auto;html=1;" parent="1" source="udBxNY5ujgTE33J7sAW1-26" target="J0PfLM__iftuOIUvQU-6-6" edge="1">
          <mxGeometry relative="1" as="geometry" />
        </mxCell>
        <mxCell id="udBxNY5ujgTE33J7sAW1-26" value="Inicio" style="rounded=0;whiteSpace=wrap;html=1;" parent="1" vertex="1">
          <mxGeometry x="5900" y="10" width="120" height="60" as="geometry" />
        </mxCell>
        <mxCell id="J0PfLM__iftuOIUvQU-6-1" value="6" style="text;strokeColor=none;fillColor=none;align=left;verticalAlign=middle;spacingLeft=4;spacingRight=4;overflow=hidden;points=[[0,0.5],[1,0.5]];portConstraint=eastwest;rotatable=0;whiteSpace=wrap;html=1;" parent="1" vertex="1">
          <mxGeometry x="2960" y="35" width="80" height="30" as="geometry" />
        </mxCell>
        <mxCell id="J0PfLM__iftuOIUvQU-6-2" value="7" style="text;html=1;strokeColor=none;fillColor=none;align=center;verticalAlign=middle;whiteSpace=wrap;rounded=0;" parent="1" vertex="1">
          <mxGeometry x="3893" y="40" width="60" height="30" as="geometry" />
        </mxCell>
        <mxCell id="J0PfLM__iftuOIUvQU-6-4" value="8" style="text;html=1;strokeColor=none;fillColor=none;align=center;verticalAlign=middle;whiteSpace=wrap;rounded=0;" parent="1" vertex="1">
          <mxGeometry x="5020" y="25" width="60" height="30" as="geometry" />
        </mxCell>
        <mxCell id="J0PfLM__iftuOIUvQU-6-9" style="edgeStyle=orthogonalEdgeStyle;rounded=0;orthogonalLoop=1;jettySize=auto;html=1;" parent="1" source="J0PfLM__iftuOIUvQU-6-6" target="J0PfLM__iftuOIUvQU-6-7" edge="1">
          <mxGeometry relative="1" as="geometry" />
        </mxCell>
        <mxCell id="J0PfLM__iftuOIUvQU-6-6" value="Leer N" style="whiteSpace=wrap;html=1;" parent="1" vertex="1">
          <mxGeometry x="5900" y="115" width="120" height="60" as="geometry" />
        </mxCell>
        <mxCell id="EVip3N3mcHC8pkCVMYGp-33" style="edgeStyle=orthogonalEdgeStyle;rounded=0;orthogonalLoop=1;jettySize=auto;html=1;exitX=0.5;exitY=1;exitDx=0;exitDy=0;" edge="1" parent="1">
          <mxGeometry relative="1" as="geometry">
            <mxPoint x="6016" y="280" as="sourcePoint" />
            <mxPoint x="6016" y="300" as="targetPoint" />
          </mxGeometry>
        </mxCell>
        <mxCell id="J0PfLM__iftuOIUvQU-6-7" value="1&amp;nbsp; = M&lt;br&gt;1= Indicador&amp;nbsp;" style="rounded=0;whiteSpace=wrap;html=1;" parent="1" vertex="1">
          <mxGeometry x="5900" y="220" width="120" height="60" as="geometry" />
        </mxCell>
        <mxCell id="J0PfLM__iftuOIUvQU-6-13" style="edgeStyle=orthogonalEdgeStyle;rounded=0;orthogonalLoop=1;jettySize=auto;html=1;" parent="1" source="J0PfLM__iftuOIUvQU-6-10" target="J0PfLM__iftuOIUvQU-6-11" edge="1">
          <mxGeometry relative="1" as="geometry" />
        </mxCell>
        <mxCell id="J0PfLM__iftuOIUvQU-6-22" style="edgeStyle=orthogonalEdgeStyle;rounded=0;orthogonalLoop=1;jettySize=auto;html=1;entryX=0.5;entryY=0;entryDx=0;entryDy=0;" parent="1" source="J0PfLM__iftuOIUvQU-6-10" target="J0PfLM__iftuOIUvQU-6-21" edge="1">
          <mxGeometry relative="1" as="geometry" />
        </mxCell>
        <mxCell id="J0PfLM__iftuOIUvQU-6-10" value="Indicador = 10" style="rhombus;whiteSpace=wrap;html=1;" parent="1" vertex="1">
          <mxGeometry x="5845" y="300" width="230" height="170" as="geometry" />
        </mxCell>
        <mxCell id="J0PfLM__iftuOIUvQU-6-14" style="edgeStyle=orthogonalEdgeStyle;rounded=0;orthogonalLoop=1;jettySize=auto;html=1;" parent="1" source="J0PfLM__iftuOIUvQU-6-11" target="J0PfLM__iftuOIUvQU-6-12" edge="1">
          <mxGeometry relative="1" as="geometry" />
        </mxCell>
        <mxCell id="J0PfLM__iftuOIUvQU-6-11" value="Multiplicacion = N * M&lt;br&gt;Suma&amp;nbsp; = M + N" style="rounded=0;whiteSpace=wrap;html=1;" parent="1" vertex="1">
          <mxGeometry x="5860" y="527.5" width="200" height="122.5" as="geometry" />
        </mxCell>
        <mxCell id="J0PfLM__iftuOIUvQU-6-16" style="edgeStyle=orthogonalEdgeStyle;rounded=0;orthogonalLoop=1;jettySize=auto;html=1;" parent="1" source="J0PfLM__iftuOIUvQU-6-12" target="J0PfLM__iftuOIUvQU-6-15" edge="1">
          <mxGeometry relative="1" as="geometry" />
        </mxCell>
        <mxCell id="J0PfLM__iftuOIUvQU-6-12" value="Escribir Multiplicador&lt;br&gt;Escribir Suma" style="shape=parallelogram;perimeter=parallelogramPerimeter;whiteSpace=wrap;html=1;fixedSize=1;" parent="1" vertex="1">
          <mxGeometry x="5867.5" y="710" width="185" height="110" as="geometry" />
        </mxCell>
        <mxCell id="J0PfLM__iftuOIUvQU-6-19" style="edgeStyle=orthogonalEdgeStyle;rounded=0;orthogonalLoop=1;jettySize=auto;html=1;entryX=0.5;entryY=0;entryDx=0;entryDy=0;" parent="1" source="J0PfLM__iftuOIUvQU-6-15" target="J0PfLM__iftuOIUvQU-6-18" edge="1">
          <mxGeometry relative="1" as="geometry" />
        </mxCell>
        <mxCell id="J0PfLM__iftuOIUvQU-6-15" value="M = M + 1" style="whiteSpace=wrap;html=1;" parent="1" vertex="1">
          <mxGeometry x="5900" y="870" width="120" height="60" as="geometry" />
        </mxCell>
        <mxCell id="J0PfLM__iftuOIUvQU-6-20" style="edgeStyle=orthogonalEdgeStyle;rounded=0;orthogonalLoop=1;jettySize=auto;html=1;entryX=0;entryY=0.5;entryDx=0;entryDy=0;" parent="1" source="J0PfLM__iftuOIUvQU-6-18" target="J0PfLM__iftuOIUvQU-6-10" edge="1">
          <mxGeometry relative="1" as="geometry">
            <mxPoint x="5730" y="240" as="targetPoint" />
            <Array as="points">
              <mxPoint x="5731" y="1020" />
              <mxPoint x="5731" y="385" />
            </Array>
          </mxGeometry>
        </mxCell>
        <mxCell id="J0PfLM__iftuOIUvQU-6-18" value="Indicador = Indicador + 1" style="rounded=0;whiteSpace=wrap;html=1;" parent="1" vertex="1">
          <mxGeometry x="5880" y="980" width="160" height="80" as="geometry" />
        </mxCell>
        <mxCell id="J0PfLM__iftuOIUvQU-6-21" value="Fin" style="rounded=1;whiteSpace=wrap;html=1;" parent="1" vertex="1">
          <mxGeometry x="6140" y="990" width="120" height="60" as="geometry" />
        </mxCell>
        <mxCell id="J0PfLM__iftuOIUvQU-6-23" value="Text" style="text;html=1;strokeColor=none;fillColor=none;align=center;verticalAlign=middle;whiteSpace=wrap;rounded=0;" parent="1" vertex="1">
          <mxGeometry x="5820" y="30" width="60" height="30" as="geometry" />
        </mxCell>
        <mxCell id="EVip3N3mcHC8pkCVMYGp-18" style="edgeStyle=orthogonalEdgeStyle;rounded=0;orthogonalLoop=1;jettySize=auto;html=1;entryX=0.433;entryY=-0.033;entryDx=0;entryDy=0;entryPerimeter=0;" edge="1" parent="1" source="EVip3N3mcHC8pkCVMYGp-1" target="EVip3N3mcHC8pkCVMYGp-7">
          <mxGeometry relative="1" as="geometry" />
        </mxCell>
        <mxCell id="EVip3N3mcHC8pkCVMYGp-1" value="Inicio" style="rounded=0;whiteSpace=wrap;html=1;" vertex="1" parent="1">
          <mxGeometry x="6528" y="40" width="120" height="60" as="geometry" />
        </mxCell>
        <mxCell id="EVip3N3mcHC8pkCVMYGp-29" style="edgeStyle=orthogonalEdgeStyle;rounded=0;orthogonalLoop=1;jettySize=auto;html=1;" edge="1" parent="1" source="EVip3N3mcHC8pkCVMYGp-3">
          <mxGeometry relative="1" as="geometry">
            <mxPoint x="6600" y="150" as="targetPoint" />
            <Array as="points">
              <mxPoint x="6391" y="840" />
            </Array>
          </mxGeometry>
        </mxCell>
        <mxCell id="EVip3N3mcHC8pkCVMYGp-31" style="edgeStyle=orthogonalEdgeStyle;rounded=0;orthogonalLoop=1;jettySize=auto;html=1;" edge="1" parent="1" source="EVip3N3mcHC8pkCVMYGp-3" target="EVip3N3mcHC8pkCVMYGp-26">
          <mxGeometry relative="1" as="geometry" />
        </mxCell>
        <mxCell id="EVip3N3mcHC8pkCVMYGp-3" value="nota &amp;lt; 0" style="rhombus;whiteSpace=wrap;html=1;" vertex="1" parent="1">
          <mxGeometry x="6540" y="800" width="150" height="80" as="geometry" />
        </mxCell>
        <mxCell id="EVip3N3mcHC8pkCVMYGp-19" style="edgeStyle=orthogonalEdgeStyle;rounded=0;orthogonalLoop=1;jettySize=auto;html=1;exitX=0.5;exitY=1;exitDx=0;exitDy=0;entryX=0.5;entryY=0;entryDx=0;entryDy=0;" edge="1" parent="1" source="EVip3N3mcHC8pkCVMYGp-7" target="EVip3N3mcHC8pkCVMYGp-8">
          <mxGeometry relative="1" as="geometry" />
        </mxCell>
        <mxCell id="EVip3N3mcHC8pkCVMYGp-7" value="Leer nota" style="shape=parallelogram;perimeter=parallelogramPerimeter;whiteSpace=wrap;html=1;fixedSize=1;" vertex="1" parent="1">
          <mxGeometry x="6550" y="190" width="120" height="60" as="geometry" />
        </mxCell>
        <mxCell id="EVip3N3mcHC8pkCVMYGp-20" style="edgeStyle=orthogonalEdgeStyle;rounded=0;orthogonalLoop=1;jettySize=auto;html=1;" edge="1" parent="1" source="EVip3N3mcHC8pkCVMYGp-8" target="EVip3N3mcHC8pkCVMYGp-10">
          <mxGeometry relative="1" as="geometry" />
        </mxCell>
        <mxCell id="EVip3N3mcHC8pkCVMYGp-8" value="E=Excelente&lt;br&gt;A= Aprobados&lt;br&gt;N= Nota" style="rounded=0;whiteSpace=wrap;html=1;" vertex="1" parent="1">
          <mxGeometry x="6550" y="290" width="120" height="60" as="geometry" />
        </mxCell>
        <mxCell id="EVip3N3mcHC8pkCVMYGp-13" style="edgeStyle=orthogonalEdgeStyle;rounded=0;orthogonalLoop=1;jettySize=auto;html=1;" edge="1" parent="1" source="EVip3N3mcHC8pkCVMYGp-9" target="EVip3N3mcHC8pkCVMYGp-12">
          <mxGeometry relative="1" as="geometry" />
        </mxCell>
        <mxCell id="EVip3N3mcHC8pkCVMYGp-14" style="edgeStyle=orthogonalEdgeStyle;rounded=0;orthogonalLoop=1;jettySize=auto;html=1;entryX=0.333;entryY=0.05;entryDx=0;entryDy=0;entryPerimeter=0;" edge="1" parent="1" source="EVip3N3mcHC8pkCVMYGp-9" target="EVip3N3mcHC8pkCVMYGp-11">
          <mxGeometry relative="1" as="geometry" />
        </mxCell>
        <mxCell id="EVip3N3mcHC8pkCVMYGp-9" value="N = 10" style="rhombus;whiteSpace=wrap;html=1;" vertex="1" parent="1">
          <mxGeometry x="6565" y="490" width="95" height="80" as="geometry" />
        </mxCell>
        <mxCell id="EVip3N3mcHC8pkCVMYGp-21" style="edgeStyle=orthogonalEdgeStyle;rounded=0;orthogonalLoop=1;jettySize=auto;html=1;" edge="1" parent="1" source="EVip3N3mcHC8pkCVMYGp-10" target="EVip3N3mcHC8pkCVMYGp-9">
          <mxGeometry relative="1" as="geometry" />
        </mxCell>
        <mxCell id="EVip3N3mcHC8pkCVMYGp-10" value="A = 0&lt;br&gt;E = 0" style="rounded=0;whiteSpace=wrap;html=1;" vertex="1" parent="1">
          <mxGeometry x="6550" y="390" width="120" height="60" as="geometry" />
        </mxCell>
        <mxCell id="EVip3N3mcHC8pkCVMYGp-28" style="edgeStyle=orthogonalEdgeStyle;rounded=0;orthogonalLoop=1;jettySize=auto;html=1;" edge="1" parent="1" source="EVip3N3mcHC8pkCVMYGp-11" target="EVip3N3mcHC8pkCVMYGp-3">
          <mxGeometry relative="1" as="geometry" />
        </mxCell>
        <mxCell id="EVip3N3mcHC8pkCVMYGp-11" value="A= A+1" style="rounded=0;whiteSpace=wrap;html=1;" vertex="1" parent="1">
          <mxGeometry x="6480" y="615" width="120" height="60" as="geometry" />
        </mxCell>
        <mxCell id="EVip3N3mcHC8pkCVMYGp-27" style="edgeStyle=orthogonalEdgeStyle;rounded=0;orthogonalLoop=1;jettySize=auto;html=1;" edge="1" parent="1" source="EVip3N3mcHC8pkCVMYGp-12" target="EVip3N3mcHC8pkCVMYGp-3">
          <mxGeometry relative="1" as="geometry" />
        </mxCell>
        <mxCell id="EVip3N3mcHC8pkCVMYGp-12" value="B= B+1" style="rounded=0;whiteSpace=wrap;html=1;" vertex="1" parent="1">
          <mxGeometry x="6650" y="620" width="120" height="60" as="geometry" />
        </mxCell>
        <mxCell id="EVip3N3mcHC8pkCVMYGp-15" value="SI" style="text;html=1;strokeColor=none;fillColor=none;align=center;verticalAlign=middle;whiteSpace=wrap;rounded=0;" vertex="1" parent="1">
          <mxGeometry x="6690" y="553" width="60" height="30" as="geometry" />
        </mxCell>
        <mxCell id="EVip3N3mcHC8pkCVMYGp-16" value="NO" style="text;html=1;strokeColor=none;fillColor=none;align=center;verticalAlign=middle;whiteSpace=wrap;rounded=0;" vertex="1" parent="1">
          <mxGeometry x="6495" y="552.5" width="60" height="30" as="geometry" />
        </mxCell>
        <mxCell id="EVip3N3mcHC8pkCVMYGp-32" style="edgeStyle=orthogonalEdgeStyle;rounded=0;orthogonalLoop=1;jettySize=auto;html=1;entryX=0.5;entryY=0;entryDx=0;entryDy=0;" edge="1" parent="1" source="EVip3N3mcHC8pkCVMYGp-26" target="EVip3N3mcHC8pkCVMYGp-30">
          <mxGeometry relative="1" as="geometry" />
        </mxCell>
        <mxCell id="EVip3N3mcHC8pkCVMYGp-26" value="Escribir &quot;aprobados con 10&quot; + B" style="shape=parallelogram;perimeter=parallelogramPerimeter;whiteSpace=wrap;html=1;fixedSize=1;" vertex="1" parent="1">
          <mxGeometry x="6492" y="950" width="220" height="60" as="geometry" />
        </mxCell>
        <mxCell id="EVip3N3mcHC8pkCVMYGp-30" value="Fin" style="rounded=0;whiteSpace=wrap;html=1;" vertex="1" parent="1">
          <mxGeometry x="6555" y="1060" width="120" height="60" as="geometry" />
        </mxCell>
      </root>
    </mxGraphModel>
  </diagram>
</mxfile>
